<svg xmlns:xlink="http://www.w3.org/1999/xlink" aria-hidden="true" width="130" height="32" viewBox="0 0 130 32" fill="none" xmlns="http://www.w3.org/2000/svg"><path fill-rule="evenodd" clip-rule="evenodd" d="M8.61066 1.94714C8.99287 3.89872 9.2229 5.87588 9.29877 7.86156C9.32205 9.94875 9.23337 12.0357 9.03309 14.1138L9.08091 14.4932L9.09001 14.5705C9.35275 16.8019 9.62343 19.1008 10.59 21.1508C10.7403 21.3865 10.8313 21.6537 10.8556 21.9304L14.8169 22.0681C14.9916 22.0867 15.1678 22.0522 15.3217 21.9694C15.2046 21.7579 15.1434 21.5212 15.1437 21.2808C15.1243 20.5793 15.6451 19.9749 16.3552 19.8749C16.3738 19.5839 16.403 19.2928 16.4323 19.0122C16.494 18.5329 16.525 18.0504 16.5252 17.5673C16.5252 17.3516 16.5087 17.1214 16.4925 16.8948L16.4925 16.8948V16.8947V16.8947V16.8947V16.8946V16.8946L16.4827 16.7566L16.4822 16.7477C16.4611 16.4181 16.4402 16.091 16.4376 15.7613V15.595C16.4376 14.8154 16.4376 13.6539 15.7202 13.3472C15.0708 13.0856 14.3646 12.9882 13.6665 13.064C13.4881 13.0808 13.3108 13.1069 13.1352 13.1419L13.1249 13.1437C12.5962 13.2342 12.0056 13.3353 11.5252 13.1003C11.0416 12.8639 10.9141 12.2428 10.8716 11.957C10.8305 11.612 10.8136 11.2647 10.8211 10.9175V10.6992C10.8211 10.2978 10.7932 9.88732 10.7656 9.48263L10.76 9.39993C10.76 9.28055 10.7494 9.16232 10.7392 9.04831C10.7341 8.99108 10.729 8.93492 10.7255 8.88021C10.7182 8.76803 10.7097 8.65218 10.7007 8.531L10.6883 8.36049C10.6099 7.78403 10.6153 7.19962 10.7042 6.62462C10.8132 6.08377 10.9074 5.54436 10.9935 5.0517L10.9935 5.05152L10.9936 5.05092L10.9937 5.05027L10.9939 5.0494C11.0231 4.88248 11.0513 4.72093 11.0788 4.56653C11.1096 4.38498 11.2851 4.26224 11.4707 4.29238C11.6563 4.32251 11.7818 4.49412 11.751 4.67567C11.6474 5.29154 11.5225 6.01915 11.3737 6.75455C11.3012 7.27185 11.3012 7.79642 11.3737 8.31372C11.3786 8.37879 11.3839 8.4435 11.3891 8.50774L11.3891 8.50814L11.3891 8.50846L11.3891 8.50852C11.3981 8.61846 11.4069 8.72698 11.4136 8.83344L11.4455 9.35316C11.4773 9.78713 11.5066 10.2367 11.5092 10.6862V10.9071C11.5011 11.2274 11.5162 11.5478 11.5544 11.866C11.5942 12.1519 11.658 12.4273 11.8333 12.5157C12.0974 12.6525 12.587 12.5687 13.0102 12.4962L13.0183 12.4949C13.2226 12.4539 13.4294 12.4253 13.6373 12.4091C14.4428 12.3213 15.258 12.4339 16.0072 12.7365C17.0991 13.2251 17.1097 14.6413 17.115 15.595V15.7535C17.115 16.0175 17.1311 16.2797 17.1471 16.5416C17.1507 16.5994 17.1542 16.6572 17.1576 16.715C17.1762 16.9931 17.1948 17.2711 17.2027 17.5492C17.2049 18.0618 17.1721 18.574 17.1044 19.0823C17.0752 19.3422 17.0513 19.628 17.0327 19.9009C17.6955 20.0368 18.1627 20.6187 18.1406 21.2808C18.14 21.4124 18.1221 21.5434 18.0874 21.6705C18.6985 21.9512 19.2378 22.1903 19.9073 22.1513C20.7093 22.0865 21.5034 21.9499 22.2799 21.7433C23.9235 21.3853 25.5359 20.9013 27.1019 20.2959C27.2985 20.2153 27.4765 20.1322 27.6492 20.036C27.6318 20.008 27.6148 19.9799 27.5979 19.952C27.5709 19.9076 27.5441 19.8635 27.5164 19.8203C27.1582 19.2637 26.8412 18.6828 26.5679 18.0819C26.188 17.2009 25.8718 16.5409 25.5424 15.938C25.3405 15.569 25.0774 15.1584 24.6524 15.0285C23.9548 14.8269 23.2349 14.7082 22.5083 14.6751C21.977 14.6387 21.4456 14.6127 20.9143 14.5867L20.1385 14.5556C19.9478 14.5391 19.7586 14.5087 19.5726 14.4646C19.2385 14.3789 18.9123 14.2659 18.5975 14.1268L18.3584 14.028C17.4923 13.6824 17.6172 13.0562 17.7872 12.6144L17.7872 12.6144C17.9573 12.1726 18.1353 11.7101 18.9775 11.8348C19.3069 11.879 19.5513 11.5568 19.8834 11.0552C19.9552 10.9487 20.0242 10.8474 20.0933 10.7538L20.0561 10.6836C19.8385 10.3895 19.7341 10.0297 19.7612 9.66759C19.8409 9.21543 20.2341 8.88801 20.5582 8.64374C20.6194 8.59696 20.6778 8.55019 20.7283 8.50601C20.7959 8.44729 20.8846 8.41729 20.9748 8.42265C21.065 8.42802 21.1494 8.4683 21.2092 8.5346C21.2706 8.60007 21.3022 8.68715 21.2967 8.77584C21.2911 8.86454 21.249 8.94723 21.1799 9.00495C21.1411 9.03936 21.097 9.07503 21.0514 9.11197L21.0513 9.11204L21.0512 9.11213L21.0511 9.11221L21.0503 9.11287C21.0308 9.12864 21.0111 9.14464 20.9913 9.16086L20.9551 9.18973C20.73 9.36887 20.4589 9.58462 20.4387 9.77933C20.4504 9.98664 20.5254 10.1858 20.6539 10.351C20.707 10.442 20.7575 10.5303 20.8 10.6109L21.4403 11.1774C21.5185 11.0834 21.593 10.9876 21.6652 10.8946L21.6653 10.8945L21.706 10.8422C22.0328 10.4784 22.3888 10.1431 22.7368 9.81831C23.2731 9.35029 23.7567 8.82761 24.1795 8.25915C24.6978 7.46774 25.1416 6.63188 25.5052 5.76189L25.723 5.27855C25.757 5.20097 25.7891 5.12147 25.8209 5.04238L25.821 5.0422L25.821 5.0421C25.8414 4.99147 25.8617 4.94102 25.8825 4.89136C26.0182 4.49997 26.2125 4.13042 26.459 3.79474C26.5518 3.68023 26.6512 3.57092 26.7565 3.46732C21.5556 -0.524734 14.43 -1.12169 8.61066 1.94714ZM13.8235 31.7792C13.7603 31.7708 13.6534 31.7539 13.503 31.7285C13.4386 31.7176 13.3186 31.6955 13.1431 31.6622C11.5832 31.3499 10.0779 30.8177 8.67442 30.0822L8.72224 29.8042C9.0756 27.6421 9.44223 25.4099 10.3615 23.3908C10.5778 23.1731 10.7333 22.9046 10.8131 22.6112L14.3254 22.7204C14.6285 22.7247 14.857 22.7286 15.0109 22.7321L15.0109 22.7308C15.2954 22.7148 15.5705 22.6251 15.8079 22.4709C16.0633 22.6279 16.3591 22.7108 16.6607 22.71C17.0796 22.713 17.4817 22.5487 17.7739 22.2552C18.4116 22.5593 19.0226 22.8191 19.7957 22.8191H19.9578C20.8146 22.7504 21.6631 22.6043 22.4924 22.3826C23.308 22.1903 24.1981 21.959 25.104 21.6991C24.4212 22.4406 23.6794 23.1279 22.8856 23.7546C21.7658 24.5397 20.5709 25.2168 19.3175 25.7763C18.6442 26.1004 18.0288 26.5286 17.495 27.0445C17.142 27.4228 16.8427 27.8458 16.6049 28.3022C16.5793 28.3455 16.5542 28.3893 16.5289 28.4333L16.5289 28.4334L16.5289 28.4334L16.5289 28.4334L16.5288 28.4335L16.5288 28.4335L16.5288 28.4336L16.5288 28.4336L16.5288 28.4336C16.4964 28.49 16.4639 28.5468 16.4296 28.6036C16.3154 28.7907 16.1878 28.97 16.0497 29.1597C15.7719 29.5086 15.5448 29.8934 15.3748 30.3031C15.2003 30.7852 15.048 31.2843 14.9013 31.7653L14.886 31.8155L14.8541 31.9142C14.5062 31.8805 14.1635 31.8337 13.8235 31.7792ZM20.5396 25.9271C21.7857 27.5772 23.6162 28.5516 25.4972 29.4014C22.818 31.0989 19.6936 32.0014 16.5013 32C16.1799 32 15.861 31.9896 15.5475 31.9714C15.691 31.4959 15.8424 31.0047 16.0125 30.5344C16.1626 30.1823 16.361 29.8518 16.6023 29.5521C16.7484 29.3598 16.8866 29.1597 17.0141 28.9466C17.0514 28.8848 17.0876 28.8221 17.1241 28.7589L17.1241 28.7589L17.1242 28.7589C17.1475 28.7185 17.1709 28.6779 17.1948 28.6374C17.4027 28.2338 17.6644 27.8589 17.9732 27.5226C18.4545 27.0588 19.0089 26.6737 19.6151 26.3818L20.5396 25.9271ZM13.0874 8.18379H13.082C13.0658 8.45216 13.0801 8.72146 13.1245 8.98676C13.1431 9.14787 13.26 9.75854 13.4088 9.8287C13.5143 9.87844 13.7359 9.85767 13.9099 9.84135C13.9814 9.83465 14.0449 9.8287 14.089 9.8287H15.8212V8.55019H15.4306V6.93126H13.6878C13.6458 6.93126 13.6092 6.92948 13.5768 6.9279H13.5767C13.4572 6.92208 13.3926 6.91893 13.3132 7.01701C13.1311 7.23958 13.1067 7.7684 13.092 8.08744C13.0904 8.12228 13.0889 8.15462 13.0874 8.18379ZM7.49481 23.5675C7.51872 22.5775 7.55326 21.6082 7.59577 20.6675C6.59947 20.748 5.63505 21.2106 5.63505 22.1227C5.63505 23.0348 6.54102 23.4662 7.49481 23.5675ZM8.55487 20.7143C8.90036 20.766 9.23288 20.8806 9.53522 21.0521C9.93901 21.2637 10.1919 21.6746 10.1941 22.1227C10.1941 22.9621 9.37316 23.4194 8.46454 23.5493C8.48048 22.5827 8.51236 21.6342 8.55487 20.7143ZM32.7051 19.0018L29.2592 19.8437C29.2407 19.8463 29.222 19.8463 29.2034 19.8437C28.8002 20.18 28.3536 20.4631 27.875 20.6857C27.9514 20.9532 28.1001 21.1955 28.3055 21.3873C28.4434 21.4865 28.5901 21.5735 28.7438 21.6472C29.0191 21.7653 29.2716 21.9288 29.4904 22.1305C29.9957 22.6668 30.4618 23.2373 30.8852 23.8378C31.7571 22.3335 32.3719 20.7 32.7051 19.0018ZM30.0722 17.783C29.72 18.328 29.3065 18.8327 28.8395 19.2876C28.6561 19.4457 28.4607 19.59 28.255 19.719C28.2071 19.6436 28.162 19.5683 28.1168 19.4929C27.7708 18.9581 27.4644 18.3997 27.2002 17.822C26.8017 16.9229 26.4776 16.2447 26.1375 15.6236C26.0102 15.3761 25.8523 15.1448 25.6673 14.935L25.112 8.07465C25.4851 7.41073 25.8204 6.72711 26.1163 6.02695L26.3288 5.5462C26.3832 5.42829 26.4333 5.3042 26.483 5.18126L26.5015 5.13562C26.6149 4.80488 26.7759 4.49163 26.9797 4.20532C27.0707 4.09581 27.1683 3.99168 27.272 3.89349C30.3129 6.42264 32.2984 9.95608 32.8512 13.8228L32.6387 14.1294C31.8921 15.213 31.119 16.333 30.3379 17.4192C30.2423 17.5387 30.1573 17.6608 30.0723 17.7829L30.0722 17.783ZM21.4831 13.9466L21.4833 13.9466C21.8419 13.9662 22.201 13.9857 22.5588 14.0099C23.3444 14.0448 24.1226 14.1749 24.8755 14.3971L24.9473 14.4282L24.5062 8.97116C24.1108 9.44506 23.6811 9.89057 23.2204 10.3042C22.8856 10.6161 22.5376 10.9409 22.232 11.2839C21.5953 12.0385 21.0197 12.8404 20.5104 13.6824L20.3749 13.8903L20.9382 13.9163C21.1195 13.9268 21.3011 13.9367 21.4827 13.9466L21.4831 13.9466ZM30.6328 18.1598L30.8879 17.8038C31.5641 16.8643 32.228 15.903 32.8795 14.9596L32.8798 14.9592L32.8804 14.9583L32.8806 14.9581L32.9522 14.8544C32.9787 15.2234 33 15.6158 33 16.003C32.9987 16.7656 32.9419 17.5272 32.83 18.282L30.0456 18.9628C30.1915 18.7781 30.3295 18.5843 30.4642 18.3951L30.4642 18.3951L30.4643 18.395L30.4644 18.3948C30.521 18.3153 30.577 18.2367 30.6328 18.1598ZM19.9259 13.3342C20.2766 12.7937 20.6353 12.2454 21.0258 11.7179L20.5476 11.2917L20.4653 11.4139C20.1332 11.9128 19.6682 12.5936 18.8898 12.4845C18.7607 12.4664 18.6876 12.4562 18.6334 12.4835C18.5627 12.5192 18.5242 12.6187 18.4355 12.8483C18.2787 13.2537 18.3319 13.2926 18.6294 13.4122L18.8632 13.5161C19.1122 13.624 19.3677 13.7169 19.6284 13.7942L19.9259 13.3342ZM8.58675 20.0386C8.63723 19.0122 8.71959 17.9753 8.8046 16.9463C8.96884 18.1011 9.2437 19.2382 9.62555 20.3427C9.29633 20.1922 8.94634 20.0898 8.58675 20.0386ZM7.54794 29.4404C7.00835 27.3937 6.3239 25.3862 5.49956 23.4324V23.409C5.18812 23.1003 4.99967 22.693 4.9682 22.2604C4.79019 22.1383 4.60422 22.0292 4.4023 21.9148C4.13776 21.7719 3.88305 21.6121 3.6398 21.4367C3.44868 21.2922 3.26112 21.1443 3.07275 20.9958L3.07273 20.9957L3.07269 20.9957L2.94638 20.8962C2.63554 20.6363 2.31141 20.3998 1.98728 20.1634C1.71784 20.451 1.40626 20.698 1.06272 20.8962L0.858143 21.0313L0.842203 21.0521C2.03615 24.5132 4.40171 27.4723 7.54794 29.4404ZM0.658884 12.8197C0.568553 12.7365 0.475566 12.656 0.393205 12.591C0.96104 10.0712 2.14631 7.72402 3.84703 5.75149L3.9108 6.88448L3.91373 6.93969L3.91373 6.93972C4.01377 8.82478 4.11727 10.7751 4.31197 12.6846L4.33057 12.8327C4.38371 13.2978 4.37042 13.459 4.17648 13.5577C3.95291 13.6422 3.71474 13.6837 3.47508 13.6798C3.43437 13.682 3.39412 13.6859 3.3545 13.6898C3.29847 13.6953 3.24373 13.7006 3.19081 13.7006C3.05999 13.7125 2.91814 13.7394 2.76927 13.7677L2.72587 13.776L2.68551 13.7831C2.34242 13.8439 1.96419 13.911 1.78271 13.776C1.42108 13.5003 1.06882 13.1858 0.725919 12.8795L0.658884 12.8197ZM1.36825 14.2957C0.969729 14.0021 0.595121 13.6668 0.231141 13.3394C0.0784625 14.2194 0.00114714 15.1104 0 16.003C0.000289389 17.4843 0.213138 18.9582 0.632316 20.3816L0.693422 20.3427C1.04412 20.114 1.525 19.7995 1.59407 19.4929C1.62783 19.2602 1.62783 19.024 1.59407 18.7913C1.57813 18.6536 1.56485 18.5158 1.56219 18.3885L1.43467 14.3399L1.36825 14.2957ZM30.4601 24.4017L30.5053 24.4744C29.3673 26.239 27.8903 27.771 26.1561 28.9856C24.2618 28.1203 22.3755 27.1874 21.1534 25.6074C21.9035 25.2227 22.6213 24.7804 23.3001 24.2847C24.1394 23.6251 24.9222 22.8994 25.6407 22.1149C25.9276 21.8187 26.2146 21.525 26.5068 21.2366C26.7565 21.1482 27.0063 21.0573 27.2507 20.9585C27.3683 21.3339 27.5921 21.6691 27.8963 21.9252C28.0633 22.0441 28.2411 22.1477 28.4277 22.2344C28.6364 22.3188 28.8295 22.4365 28.9989 22.5827C29.5284 23.1552 30.0166 23.763 30.4601 24.4017ZM16.0764 20.7209C15.9197 20.8663 15.8328 21.0695 15.8371 21.2808C15.8371 21.7228 16.2035 22.0811 16.6554 22.0811C17.1074 22.0811 17.4737 21.7228 17.4737 21.2808C17.4864 21.0641 17.3974 20.8536 17.2319 20.7091C17.0707 20.581 16.8684 20.5129 16.6607 20.5168C16.4453 20.5014 16.2332 20.5755 16.0764 20.7209ZM8.45657 24.2224C8.80399 24.183 9.14444 24.0983 9.4688 23.9703C9.05847 25.0879 8.74389 26.237 8.5283 27.4057C8.52354 27.2974 8.51862 27.1891 8.51369 27.0808C8.49935 26.7658 8.48505 26.4515 8.47516 26.1401C8.45657 25.4957 8.45657 24.859 8.45657 24.2224ZM7.43903 17.9857L7.43901 17.9857C7.30883 18.4535 7.17334 18.9394 7.0033 19.4046C6.90129 19.6739 6.77689 19.9347 6.63135 20.1841C6.95472 20.0848 7.28931 20.0246 7.62765 20.0048C7.6861 18.8303 7.78174 17.6505 7.88004 16.4837L7.62765 17.3361C7.56123 17.5439 7.50013 17.7648 7.43903 17.9857ZM7.51606 26.1687C7.52935 26.5689 7.54794 26.9717 7.56654 27.3693C7.2185 26.2285 6.83592 25.0851 6.38161 23.9703C6.7375 24.1103 7.11265 24.1979 7.49481 24.2302C7.49215 24.8694 7.49481 25.5165 7.51606 26.1687ZM4.48998 5.03688C4.5254 5.63802 4.55905 6.23657 4.59093 6.83251L4.59345 6.87969C4.69362 8.76201 4.79714 10.7073 4.99211 12.6014L5.00805 12.7391C5.05853 13.1653 5.13292 13.8072 4.47669 14.1346C4.16843 14.2661 3.83528 14.3325 3.49899 14.3295L3.23331 14.3477C3.13411 14.3477 3.01662 14.3745 2.90512 14.4C2.88224 14.4052 2.85962 14.4104 2.83745 14.4152C2.60345 14.4676 2.3652 14.4998 2.12543 14.5114L2.23702 18.3703C2.23702 18.4638 2.24817 18.5627 2.25958 18.664C2.26182 18.6838 2.26407 18.7037 2.26624 18.7237C2.3022 18.9954 2.3022 19.2706 2.26624 19.5423C2.57841 19.7573 2.88149 19.9972 3.17697 20.2312C3.23859 20.2799 3.29987 20.3285 3.36084 20.3764C3.58667 20.5557 3.81515 20.7324 4.04364 20.8962C4.26335 21.0534 4.49319 21.1966 4.73174 21.3249L5.0479 21.5068C5.16545 21.1707 5.37943 20.8748 5.66428 20.6545C5.70442 20.5783 5.74568 20.5027 5.78677 20.4274C5.83543 20.3383 5.88386 20.2495 5.92996 20.1608C6.12376 19.8549 6.2883 19.5321 6.42146 19.1967C6.58353 18.7497 6.71637 18.2768 6.84389 17.8194C6.86515 17.7449 6.88611 17.6701 6.90706 17.5954C6.94898 17.4458 6.9909 17.2962 7.03518 17.149L8.0979 13.5499C8.24668 11.6659 8.36358 9.75334 8.31044 7.87195C8.24483 6.0494 8.04148 4.23408 7.70204 2.44087C6.52404 3.1707 5.44484 4.04292 4.48998 5.03688Z" fill="#453C90"></path><path fill-rule="evenodd" clip-rule="evenodd" d="M44.4613 1.40454V1.39933C47.1255 1.71299 49.5811 3.08653 51.3387 5.2462C51.4659 5.40308 51.6512 5.49246 51.8456 5.49069C52.0373 5.48861 52.2194 5.40087 52.3476 5.2488C52.5628 4.98386 52.5628 4.59039 52.3476 4.32545C50.3717 1.89672 47.6105 0.352221 44.6149 0H44.532C44.1845 0.00501007 43.9001 0.296611 43.8814 0.667005C43.8628 1.0374 44.1163 1.35983 44.4613 1.40454ZM41.7318 30.5591V30.5617C38.5637 30.5617 35.5368 29.0999 33.2021 26.4417C33.0661 26.2793 32.8726 26.1849 32.6684 26.1816C32.4021 26.1815 32.1605 26.3486 32.0519 26.6081C31.9459 26.8874 32.0053 27.2072 32.203 27.4223C34.8033 30.3744 38.1859 32 41.7318 32C42.1047 32 42.4069 31.6774 42.4069 31.2795C42.4069 30.8816 42.1047 30.5591 41.7318 30.5591ZM44.5223 18.0717C44.3029 18.0119 44.0812 17.952 43.8667 17.9026V14.7034C44.4491 14.8595 44.7733 15.1248 44.9097 15.5539C45.0176 15.9375 45.0911 16.3312 45.1291 16.7296C45.1731 17.2115 45.2663 17.6868 45.4069 18.1471C45.424 18.1965 45.4435 18.246 45.463 18.2954C45.151 18.2382 44.8342 18.1549 44.5223 18.0717ZM43.8789 13.7905C44.5881 13.9569 45.3898 14.3003 45.6994 15.2574C45.8259 15.6956 45.9116 16.146 45.9552 16.6021C45.9963 17.021 46.078 17.4341 46.1989 17.835C46.2612 18.0126 46.3328 18.1862 46.4134 18.3552C46.6135 18.3552 46.8445 18.357 47.0732 18.3587L47.0737 18.3587C47.5244 18.3622 47.9659 18.3655 48.1437 18.3552C48.223 18.1781 48.2914 17.9956 48.3484 17.809C48.385 17.6919 48.4215 17.5853 48.4508 17.5177C48.5645 17.2168 48.813 16.9977 49.1112 16.9351L49.2599 16.883L49.7814 16.6854L49.6864 16.6359C49.5932 16.5704 49.5399 16.4569 49.5464 16.338C49.553 16.2191 49.6185 16.113 49.7183 16.0597C49.818 16.0063 49.9368 16.0138 50.03 16.0793C50.242 16.2276 51.6579 17.1197 51.7774 17.1717H51.8066C51.9052 17.0992 51.9981 17.0183 52.0844 16.9299L52.1283 16.888C52.1785 16.84 52.2273 16.7933 52.2745 16.753L52.8545 16.264C51.0921 12.7206 47.6377 10.5083 43.8789 10.5158V13.7905ZM46.4719 31.5708C46.4629 31.5775 46.4547 31.5854 46.4475 31.5942C45.9603 31.7332 45.4643 31.8341 44.9634 31.896C44.8893 31.9044 44.8229 31.9147 44.7617 31.9243C44.521 31.9618 44.3622 31.9865 44.1445 31.8309C43.9763 31.718 43.872 31.5228 43.8667 31.3107V30.6033V24.2386L46.7424 31.0012C46.6425 31.1885 46.5548 31.381 46.4719 31.5708ZM52.0527 27.5783C51.3241 27.1882 50.4638 26.6342 49.9301 25.7706C49.4782 24.9952 49.3204 24.0649 49.489 23.1696C49.6538 22.2974 49.9267 21.4525 50.3005 20.6571L50.3614 20.5088C50.6612 19.7935 50.8854 19.0913 50.4979 18.8156C50.3005 18.6751 49.9983 18.761 49.9179 19.8326C49.9053 20.1937 49.8223 20.548 49.6742 20.873C49.5365 21.1416 49.2949 21.3319 49.0137 21.3932C48.3606 21.5414 47.5515 21.068 47.2006 20.7975C46.6167 20.317 46.1349 19.7097 45.7871 19.0159C45.3112 18.9549 44.8404 18.8558 44.3785 18.7193C44.2281 18.6775 44.0776 18.6397 43.929 18.6025L43.9289 18.6024L43.8764 18.5893V22.6234L47.1884 30.4082L47.2371 30.3562L48.7944 28.9126C48.8614 28.8513 48.9495 28.8229 49.0371 28.8342C49.1247 28.8456 49.2038 28.8958 49.255 28.9724L49.8594 29.8854C50.6966 29.2403 51.4362 28.4623 52.0527 27.5783ZM53.3614 18.8234C53.446 18.8693 53.5314 18.9075 53.6166 18.9456C53.6715 18.9701 53.7262 18.9946 53.7806 19.0211C54.317 21.7057 53.8612 24.5076 52.5085 26.8422H52.4939C51.8456 26.4885 51.0731 26.0021 50.6271 25.2816C50.2905 24.6951 50.178 23.993 50.3127 23.3205C50.4637 22.5284 50.7128 21.7613 51.0536 21.0394L51.1145 20.8912C51.3752 20.2721 51.909 18.8104 50.844 18.1445C49.6109 17.3738 49.4165 18.5348 49.2583 19.4797C49.1811 19.9411 49.1125 20.351 48.9358 20.4594C48.922 20.4672 48.9124 20.478 48.9024 20.4892C48.8858 20.5078 48.8681 20.5277 48.8285 20.5374C48.558 20.5947 48.0097 20.358 47.6856 20.0979C47.3284 19.8066 47.0181 19.4552 46.7668 19.0575H47.3492C47.7082 19.0802 48.0685 19.0549 48.4215 18.982C48.6482 18.8442 48.7725 18.5061 48.9236 18.0483L48.9384 18.0031C48.9637 17.9255 48.986 17.8575 49.0064 17.8116C49.067 17.6642 49.077 17.6608 49.2829 17.5892L49.2867 17.5879L49.4549 17.5307L50.2566 17.2264L50.3639 17.1796C50.3929 17.1652 50.4445 17.1378 50.4416 17.1334C50.5191 17.159 51.4922 17.7674 51.4922 17.7674L52.2233 18.1965C52.2706 18.2262 52.3245 18.2415 52.3793 18.2408C52.4917 18.2415 52.5954 18.1766 52.6498 18.0717C52.6911 17.9948 52.7019 17.9036 52.68 17.8182C52.658 17.7327 52.6051 17.6602 52.5329 17.6165L52.3866 17.5307L52.4103 17.5085L52.4282 17.4915C52.4436 17.4767 52.4611 17.46 52.4914 17.4318C52.5094 17.4151 52.5272 17.3981 52.5448 17.3813C52.5819 17.3458 52.6183 17.311 52.6547 17.281L53.1251 16.8778C53.3057 17.3099 53.4604 17.7539 53.5881 18.2069C53.4286 18.1401 53.2486 18.224 53.186 18.3942C53.1234 18.5644 53.202 18.7566 53.3614 18.8234ZM50.4394 17.1327L50.4416 17.1334C50.4413 17.1329 50.4406 17.1327 50.4394 17.1327ZM47.2883 31.3289C48.0061 31.0591 48.6929 30.7031 49.3354 30.2677L48.9333 29.6591L47.6368 30.8634C47.4985 30.9981 47.3809 31.1552 47.2883 31.3289ZM37.428 15.8791L35.0641 13.6708C34.7798 11.2535 34.0431 8.92188 32.8975 6.8146L34.7448 8.48964C34.8748 8.60508 34.9613 8.76671 34.9885 8.94481C35.0914 9.35438 35.1647 9.77176 35.2078 10.1933C35.2498 10.5621 35.3091 10.9285 35.3857 11.2909C35.5479 12.2161 35.9517 13.0736 36.5507 13.7644C37.3165 14.6186 38.3797 15.096 39.4873 15.0832C39.6804 15.083 39.8733 15.0699 40.0649 15.0441C40.8009 14.9453 41.5344 14.7996 42.246 14.641V17.5021L38.4126 16.3758C38.3444 16.3524 38.2567 16.3316 38.169 16.3108L38.1689 16.3108L38.1689 16.3108C38.0269 16.2855 37.888 16.2436 37.7546 16.186C37.679 16.1343 37.6101 16.0722 37.5498 16.0013L37.428 15.8791ZM42.2558 18.1939L38.2566 17.0183C38.2013 17.0014 38.1429 16.988 38.0813 16.9738L38.0812 16.9738L38.0811 16.9738L38.0373 16.9637C37.8428 16.9302 37.6534 16.869 37.4743 16.7816C37.34 16.7019 37.2182 16.6001 37.1136 16.4799C37.1026 16.469 37.0919 16.4581 37.0813 16.4474C37.0591 16.4248 37.0376 16.403 37.0161 16.3836L35.1494 14.6436C35.1762 15.0675 35.1932 15.4941 35.1932 15.9259C35.1917 16.603 35.1543 17.2795 35.0811 17.952C36.9559 20.0411 39.5454 21.2277 42.2558 21.2397V18.1939ZM41.6441 0.013005C42.3045 -0.0260099 42.2558 0.769894 42.2558 0.769894V13.7514C41.5101 13.9179 40.7375 14.0766 39.9723 14.178C38.9375 14.3451 37.8908 13.9682 37.1624 13.1662C36.6662 12.59 36.3347 11.8743 36.207 11.1036C36.1373 10.7958 36.0961 10.4753 36.0529 10.1396L36.0529 10.1396L36.0511 10.1257L36.0974 10.1569C36.4003 10.4087 36.7634 10.5646 37.1453 10.6068C37.3971 10.6069 37.6441 10.5331 37.8594 10.3936C38.0421 10.2843 38.1274 10.2609 38.2079 10.2843C38.5108 10.3941 38.7943 10.5576 39.0462 10.7681L39.0466 10.7684C39.1827 10.8774 39.1995 10.8908 38.9731 11.3377L38.9146 11.4548C38.8089 11.6725 38.8872 11.9405 39.0901 12.0556C39.1504 12.0889 39.2171 12.1067 39.285 12.1076C39.4401 12.1082 39.5824 12.0157 39.653 11.8683L39.7091 11.7591L39.7197 11.7374C39.9193 11.3305 40.264 10.6277 39.5458 10.0554C39.2167 9.77677 38.8448 9.56115 38.4467 9.41819C38.1229 9.33878 37.7829 9.39957 37.5011 9.58725C37.4016 9.65971 37.2851 9.70114 37.1648 9.7069C36.794 9.66807 36.3444 9.35843 36.0892 9.18266C35.9854 9.11119 35.9138 9.06185 35.8927 9.06185C35.8682 8.94872 35.8437 8.8647 35.8136 8.76109L35.7952 8.69772C35.7222 8.35343 35.5449 8.04444 35.2907 7.81858L33.4093 6.10973C33.3588 6.06645 33.2995 6.03619 33.2363 6.0213C33.8812 4.60312 34.8106 3.35373 35.9585 2.3617L35.9755 2.40072C36.0263 2.51994 36.1379 2.59629 36.2606 2.59579C36.3052 2.59661 36.3493 2.58683 36.3898 2.56718C36.5467 2.49046 36.6163 2.29311 36.5458 2.12501L36.4702 1.94814C37.991 0.798631 39.7837 0.12812 41.6441 0.013005ZM47.9011 14.978C47.8965 14.8897 47.9251 14.803 47.9804 14.7372C48.0963 14.5995 48.2947 14.5878 48.424 14.7112C48.6263 14.9063 48.8334 15.104 49.043 15.2912C49.1427 15.3823 49.1789 15.5298 49.1338 15.6614C49.0888 15.7929 48.9719 15.8807 48.8407 15.8817C48.7669 15.8812 48.6955 15.8536 48.6384 15.8036C48.424 15.6086 48.212 15.4083 48.0048 15.208C47.943 15.1491 47.9057 15.0663 47.9011 14.978ZM47.0056 13.1948V13.2C46.9094 13.047 46.7152 13.0063 46.5718 13.109C46.4285 13.2117 46.3903 13.419 46.4865 13.572C46.5472 13.6644 46.6149 13.7514 46.6888 13.8321L46.9325 14.0922L47.0836 14.2638C47.1422 14.3308 47.2244 14.3685 47.3102 14.3679C47.3907 14.3675 47.468 14.3351 47.5271 14.2768C47.6513 14.1489 47.6568 13.9385 47.5393 13.8035L47.3882 13.6344C47.3219 13.5717 47.2601 13.5028 47.198 13.4336L47.1769 13.4101L47.1445 13.3743C47.0942 13.3182 47.0478 13.2582 47.0056 13.1948ZM45.5702 11.1765L45.5653 11.1713C45.6291 11.1148 45.7114 11.0879 45.7938 11.0967C45.8763 11.1055 45.952 11.1492 46.004 11.2181C46.1897 11.4733 46.3467 11.7509 46.4719 12.0452C46.5085 12.1247 46.5137 12.2167 46.4862 12.3003C46.4587 12.384 46.4009 12.4523 46.3257 12.49C46.2833 12.5125 46.2365 12.5241 46.1892 12.5238C46.0701 12.5231 45.9616 12.4506 45.9089 12.3365C45.8049 12.0887 45.674 11.8548 45.519 11.6394C45.4137 11.4964 45.4366 11.2894 45.5702 11.1765ZM37.1404 4.65578C37.1782 4.65899 37.2163 4.65457 37.2525 4.64277C37.3295 4.60839 37.3903 4.54254 37.4215 4.45995C37.4526 4.37735 37.4514 4.28488 37.4182 4.2032C37.3671 4.07315 37.3135 3.9405 37.2574 3.81305L37.0795 3.35788C37.0075 3.19053 36.822 3.11717 36.6652 3.19402C36.5084 3.27087 36.4397 3.46884 36.5117 3.63619L36.6969 4.07575C36.7401 4.17018 36.7818 4.27476 36.8232 4.37857L36.8232 4.37858L36.8232 4.3786L36.8529 4.4529C36.9018 4.57604 37.0151 4.65595 37.1404 4.65578ZM38.4182 6.38328C38.4035 6.47071 38.3568 6.54827 38.2883 6.59872C38.2357 6.63669 38.1739 6.65748 38.1104 6.65854C38.0071 6.65823 37.9105 6.60378 37.852 6.51288C37.7278 6.32041 37.5962 6.11233 37.4792 5.89385L37.4792 5.89384C37.4475 5.83402 37.4158 5.7742 37.3866 5.71178C37.3343 5.60631 37.3388 5.47911 37.3982 5.37809C37.4577 5.27707 37.5631 5.21758 37.6748 5.22203C37.7865 5.22648 37.8875 5.29419 37.9398 5.39966C37.9666 5.45688 37.9958 5.5115 38.0251 5.56352C38.1274 5.7586 38.2493 5.95367 38.3663 6.13314C38.4141 6.20579 38.4328 6.29584 38.4182 6.38328ZM39.9625 8.00845C39.9882 7.92257 39.9801 7.82926 39.9401 7.74985C39.9002 7.67043 39.8318 7.61171 39.7505 7.58709L39.441 7.48305C39.3219 7.44782 39.2085 7.39344 39.1047 7.32179C39.0804 7.30009 39.0583 7.27568 39.0389 7.24896C38.9312 7.10532 38.7348 7.08203 38.6002 7.19694C38.4656 7.31186 38.4438 7.52147 38.5515 7.66512C38.6024 7.73589 38.6613 7.79967 38.7269 7.85499C38.8918 7.97281 39.0738 8.06069 39.2655 8.11509L39.3679 8.14891L39.4434 8.17492L39.5726 8.21913C39.642 8.24531 39.7177 8.24531 39.7871 8.21913C39.8717 8.17981 39.9359 8.10277 39.9625 8.00845ZM41.6246 8.37519C41.785 8.44388 41.8634 8.63791 41.8001 8.80956C41.7525 8.93617 41.6379 9.01946 41.5101 9.02024C41.4701 9.02003 41.4304 9.0121 41.3931 8.99683L40.6084 8.6639C40.5043 8.62023 40.43 8.52063 40.4134 8.40263C40.3968 8.28462 40.4405 8.16614 40.528 8.09181C40.6154 8.01748 40.7334 7.99859 40.8374 8.04227L41.6246 8.37519Z" fill="#D40058"></path><path fill-rule="evenodd" clip-rule="evenodd" d="M84.2401 13.4734C83.5622 14.236 82.602 14.6702 81.5955 14.6695C79.2276 14.6695 77.5098 12.7537 77.5098 10.1208C77.5098 7.3086 79.6323 5.57207 81.5955 5.57207C82.5994 5.55733 83.5617 5.98278 84.2401 6.74135V2.14449C84.2401 2.06469 84.3032 2 84.3811 2H85.7726C85.8509 1.99999 85.9147 2.06426 85.9162 2.14449V14.2761C85.9147 14.3564 85.8509 14.4206 85.7726 14.4206H84.3811C84.3032 14.4206 84.2401 14.3559 84.2401 14.2761V13.4734ZM79.1858 10.1208C79.1858 11.5924 79.8411 13.1764 81.713 13.1844C83.295 13.1844 84.2401 11.6245 84.2401 10.1208C84.2401 8.19961 83.295 7.05441 81.713 7.05441C79.969 7.05441 79.1858 8.64377 79.1858 10.1208ZM87.5291 14.3756C87.5555 14.4027 87.5914 14.4179 87.6288 14.4179H89.0203C89.0985 14.418 89.1624 14.3537 89.1638 14.2735V9.05048C89.1638 7.8919 90.5997 7.05441 91.5683 7.05441C92.3515 7.05441 92.8188 7.35676 93.0642 8.00963C93.2887 8.59829 93.2887 9.39832 93.2887 10.1208V14.2735C93.2887 14.3533 93.3518 14.4179 93.4297 14.4179H94.8212C94.8995 14.418 94.9633 14.3537 94.9648 14.2735V9.75419C94.9648 6.97681 93.897 5.56671 91.7954 5.56671C90.7772 5.53846 89.7995 5.97576 89.1273 6.76008L89.0464 5.93596C89.0396 5.86143 88.9784 5.80453 88.9054 5.80485H87.6288C87.5509 5.80485 87.4878 5.86954 87.4878 5.94934V14.2735C87.4878 14.3118 87.5026 14.3485 87.5291 14.3756ZM109.786 19.8175C109.856 19.8228 109.912 19.8813 109.916 19.954C109.92 19.9761 109.92 19.9987 109.916 20.0209L106.282 28.9925C105.569 30.6916 104.431 31.7592 103.076 32H103.074C103.031 31.9993 102.991 31.9798 102.964 31.9465L102.207 30.9966C102.176 30.9577 102.166 30.9053 102.182 30.8576C102.197 30.81 102.235 30.7736 102.282 30.7612C103.596 30.4267 104.358 29.6855 104.825 28.2861L101.45 20.0182C101.427 19.9756 101.427 19.9244 101.45 19.8817C101.477 19.8418 101.522 19.8179 101.57 19.8175H103.024C103.083 19.8162 103.137 19.8539 103.157 19.9112L105.671 26.5469L108.25 19.9085C108.272 19.8523 108.325 19.8158 108.384 19.8175H109.786ZM71.6436 8.32804C71.6436 4.83892 69.0303 2 65.8192 2C62.6107 2 60 4.83892 60 8.32804C60 11.8172 62.6107 14.6695 65.8192 14.6695C69.0277 14.6695 71.6436 11.8172 71.6436 8.32804ZM69.9676 8.32804C69.9676 5.65501 68.1088 3.47966 65.8192 3.47966C63.5296 3.47966 61.6682 5.65501 61.6682 8.32804C61.6682 11.0011 63.5322 13.1764 65.8192 13.1764C68.1061 13.1764 69.9676 11.0037 69.9676 8.32804ZM78.4205 19.8589C78.3935 19.8317 78.3569 19.8168 78.3191 19.8175H76.9276C76.8902 19.8175 76.8544 19.8327 76.8279 19.8598C76.8015 19.8869 76.7866 19.9237 76.7866 19.962V25.1957C76.7866 26.3516 75.3508 27.1891 74.3822 27.1891C73.599 27.1891 73.1317 26.8867 72.8837 26.2365C72.6618 25.6452 72.6618 24.8773 72.6618 24.1227V19.962C72.6618 19.9237 72.6469 19.8869 72.6205 19.8598C72.594 19.8327 72.5582 19.8175 72.5208 19.8175H71.1267C71.0484 19.8175 70.9845 19.8818 70.9831 19.962V24.4813C70.9831 27.2613 72.0509 28.6687 74.1525 28.6687C75.1709 28.6981 76.149 28.2606 76.8206 27.4754L76.9041 28.2995C76.9096 28.3747 76.9716 28.4322 77.0451 28.4306H78.3191C78.3569 28.4313 78.3935 28.4164 78.4205 28.3892C78.4475 28.3621 78.4627 28.3249 78.4627 28.2861V19.962C78.4627 19.9232 78.4475 19.8861 78.4205 19.8589ZM93.7064 19.8817C93.7333 19.9229 93.7383 19.9752 93.7195 20.0209L90.2629 28.3423C90.2408 28.3961 90.1893 28.4309 90.1324 28.4306H88.7957C88.739 28.4302 88.6879 28.3956 88.6652 28.3423L85.2583 20.0182C85.2398 19.9735 85.2446 19.9223 85.2708 19.8819C85.2971 19.8415 85.3414 19.8173 85.3888 19.8175H86.8403C86.8997 19.8162 86.9533 19.8539 86.9735 19.9112L89.4615 26.464L92.0382 19.9085C92.0589 19.8532 92.1109 19.8169 92.1687 19.8175H93.5863C93.6343 19.817 93.6794 19.8411 93.7064 19.8817ZM101.549 24.3207C101.549 21.2597 100.181 19.5794 97.6955 19.5794C95.3276 19.5794 93.6072 21.4898 93.6072 24.1281C93.6072 26.8493 95.2519 28.6768 97.6955 28.6768C98.6954 28.6768 100.118 28.4761 101.209 27.5182C101.254 27.4771 101.269 27.4125 101.249 27.355L100.841 26.2312C100.826 26.1852 100.788 26.1507 100.742 26.1402C100.694 26.1291 100.645 26.1431 100.609 26.1777C99.9538 26.8252 98.8886 27.1971 97.6955 27.1971C96.0717 27.1971 95.3955 25.8138 95.2937 24.4679H101.408C101.446 24.4679 101.482 24.4523 101.509 24.4246C101.535 24.397 101.55 24.3595 101.549 24.3207ZM95.3094 23.2317H99.8493C99.6039 21.7601 98.9147 21.0724 97.6955 21.0724C96.4763 21.0724 95.5548 21.9126 95.3094 23.2317ZM72.7531 14.2735C72.7531 14.3533 72.8163 14.4179 72.8941 14.4179H74.2856C74.3234 14.4187 74.36 14.4038 74.387 14.3766C74.414 14.3494 74.4292 14.3122 74.4292 14.2735V9.75419C74.4292 9.12005 74.5676 7.04638 76.3768 7.04638C76.6784 7.01539 76.9811 7.09296 77.2331 7.26579C77.2768 7.29165 77.3306 7.29159 77.3743 7.26563C77.418 7.23967 77.4447 7.19176 77.4445 7.14003V5.83964C77.445 5.77186 77.3994 5.71288 77.3349 5.69782C77.0452 5.61875 76.747 5.57651 76.4472 5.57207C75.6188 5.57387 74.8456 5.99821 74.3848 6.70389L74.3117 5.94934C74.305 5.87481 74.2438 5.81791 74.1707 5.81823H72.8941C72.8163 5.81823 72.7531 5.88292 72.7531 5.96272V14.2735ZM126.147 5.57207C128.632 5.57207 130 7.24973 130 10.3027C130 10.3825 129.937 10.4472 129.859 10.4472H123.745C123.847 11.7958 124.525 13.1764 126.147 13.1764C127.355 13.1764 128.4 12.7965 129.065 12.1543C129.099 12.1202 129.147 12.1061 129.193 12.1168C129.241 12.1271 129.28 12.1613 129.298 12.2078L129.705 13.3316C129.735 13.3936 129.716 13.4689 129.661 13.5082C128.569 14.4688 127.149 14.6695 126.147 14.6695C123.703 14.6695 122.061 12.8366 122.061 10.1208C122.061 7.48252 123.779 5.57207 126.147 5.57207ZM128.3 9.21102H123.76C124.006 7.89458 124.927 7.05173 126.147 7.05173C127.366 7.05173 128.055 7.73939 128.3 9.21102ZM66.0646 21.1527C68.5943 21.8377 69.8762 23.1568 69.8736 25.0753C69.8631 27.1918 68.2784 28.6687 66.0202 28.6687C64.3337 28.65 62.8117 28.0721 61.9502 27.1222C61.9082 27.0692 61.9082 26.9933 61.9502 26.9402L62.6786 25.87C62.7023 25.8354 62.7394 25.813 62.7804 25.8084C62.8207 25.8014 62.8619 25.8154 62.89 25.8459C63.742 26.6656 64.855 27.1409 66.0228 27.1837C66.5759 27.2034 67.1122 26.9866 67.5032 26.5853C67.8943 26.184 68.1051 25.6341 68.0853 25.0672C68.0983 23.625 66.9862 23.1996 65.6364 22.8223C63.4696 22.2149 62.2843 20.9413 62.2843 19.2449C62.2843 17.0321 64.2215 16.0073 66.0202 16.0073C67.0535 16.0114 68.0651 16.3107 68.9416 16.8716C68.974 16.894 68.9965 16.9286 69.0042 16.9679C69.0121 17.0062 69.0036 17.0462 68.9807 17.0776L68.268 18.1158C68.2257 18.1758 68.1469 18.1951 68.0826 18.1613C67.4553 17.7769 66.7491 17.5479 66.0202 17.4923C65.0047 17.4923 63.9604 18.0355 63.9604 19.2503C63.9343 20.4222 65.1482 20.8851 66.0646 21.1527ZM84.7283 19.8443C84.728 19.7762 84.683 19.7168 84.6187 19.6998C84.3277 19.6219 84.029 19.5788 83.7284 19.5714C82.9 19.5732 82.1267 19.9975 81.666 20.7032L81.5929 19.9486C81.5861 19.8741 81.5249 19.8172 81.4519 19.8175H80.1753C80.1379 19.8175 80.102 19.8327 80.0756 19.8598C80.0492 19.8869 80.0343 19.9237 80.0343 19.962V28.2861C80.0343 28.3659 80.0974 28.4306 80.1753 28.4306H81.5694C81.6068 28.4306 81.6426 28.4154 81.6691 28.3883C81.6955 28.3612 81.7104 28.3244 81.7104 28.2861V23.7669C81.7104 23.1327 81.8513 21.059 83.6553 21.059C83.9577 21.0285 84.2612 21.106 84.5142 21.2785C84.5582 21.3027 84.6112 21.3027 84.6552 21.2785C84.7 21.2519 84.7278 21.2031 84.7283 21.15V19.8443ZM121.017 12.3362C121.062 12.3537 121.095 12.3944 121.103 12.4433L121.463 13.5671C121.481 13.624 121.463 13.6865 121.419 13.7249C120.68 14.3511 119.69 14.6695 118.479 14.6695C116.004 14.6695 114.273 12.743 114.273 10.1047C114.273 7.46646 116.049 5.55601 118.495 5.55601C119.103 5.55601 120.609 5.67642 121.393 6.78951C121.428 6.83988 121.428 6.90771 121.393 6.95808L120.805 7.83036C120.782 7.8693 120.74 7.89343 120.696 7.89458C120.651 7.89006 120.61 7.87025 120.578 7.83839C119.996 7.09454 119.317 7.03568 118.49 7.03568C116.626 7.03568 115.965 8.68659 115.965 10.102C115.965 12.0473 116.884 13.1657 118.49 13.1657C119.357 13.2039 120.208 12.9188 120.886 12.363C120.922 12.3308 120.972 12.3206 121.017 12.3362ZM95.8419 10.1208C95.8419 12.7456 97.5598 14.6695 99.9276 14.6695C100.931 14.6736 101.89 14.2443 102.57 13.4868V14.2895C102.57 14.3693 102.633 14.434 102.711 14.434H104.105C104.183 14.434 104.246 14.3693 104.246 14.2895V5.94934C104.246 5.86954 104.183 5.80485 104.105 5.80485H102.828C102.755 5.80453 102.694 5.86143 102.687 5.93596L102.604 6.77881C101.925 5.9976 100.948 5.55723 99.9276 5.57207C97.9618 5.57207 95.8419 7.3086 95.8419 10.1208ZM97.518 10.1208C97.518 11.5924 98.1811 13.1764 100.043 13.1844C101.625 13.1844 102.57 11.6245 102.57 10.1208C102.57 8.19961 101.625 7.05441 100.043 7.05441C98.3012 7.05441 97.518 8.64377 97.518 10.1208ZM113.284 9.75419C113.294 6.97681 112.229 5.57207 110.125 5.57207C109.106 5.54376 108.127 5.981 107.454 6.76543L107.373 5.94131C107.367 5.86678 107.305 5.80988 107.232 5.8102H105.948C105.87 5.8102 105.807 5.87489 105.807 5.95469V14.2735C105.807 14.3533 105.87 14.4179 105.948 14.4179H107.342C107.379 14.4179 107.415 14.4027 107.442 14.3756C107.468 14.3485 107.483 14.3118 107.483 14.2735V9.05048C107.483 7.8919 108.921 7.05441 109.887 7.05441C110.671 7.05441 111.138 7.35676 111.386 8.00963C111.608 8.59829 111.608 9.39832 111.608 10.1208V14.2735C111.608 14.3533 111.671 14.4179 111.749 14.4179H113.143C113.221 14.4179 113.284 14.3533 113.284 14.2735V9.75419Z" fill="#453C90"></path></svg>